<svg width="22" height="18" viewBox="0 0 22 18" fill="none" xmlns="http://www.w3.org/2000/svg">
<path id="&#244;&#128;&#152;&#183;" d="M6.88013 4.11108C5.9939 4.11108 5.28345 3.40063 5.28345 2.52173C5.28345 1.6355 5.9939 0.925049 6.88013 0.925049C7.76636 0.925049 8.47681 1.6355 8.47681 2.52173C8.47681 3.40063 7.76636 4.11108 6.88013 4.11108ZM15.1125 4.11108C14.2263 4.11108 13.5159 3.40063 13.5159 2.52173C13.5159 1.6355 14.2263 0.925049 15.1125 0.925049C15.9915 0.925049 16.7019 1.6355 16.7019 2.52173C16.7019 3.40063 15.9915 4.11108 15.1125 4.11108ZM6.8728 10.9885C6.57251 10.9885 6.46265 11.1936 6.28687 11.7209C6.04517 12.4607 5.2981 15.5295 5.0564 16.4304C4.93188 16.8845 4.69019 17.075 4.34595 17.075C3.88452 17.075 3.59155 16.6501 3.72339 16.1887C3.77466 15.991 4.83667 11.5525 4.98315 10.637C5.13696 9.69946 5.15894 7.65601 5.15161 7.02612C5.13696 6.58667 4.92456 6.2937 4.573 6.22778C4.22876 6.16187 1.44556 5.8103 1.04272 5.72241C0.727783 5.65649 0.522705 5.37085 0.522705 5.03394C0.522705 4.60913 0.822998 4.35278 1.14526 4.35278C1.25513 4.35278 1.38696 4.38208 1.50415 4.41138C2.64673 4.6311 5.13696 4.82886 6.8728 4.88013C8.39624 4.92407 10.0222 4.96069 11.033 4.96069C12.0291 4.96069 13.6184 4.92407 15.1125 4.88013C16.8704 4.81421 19.3386 4.61646 20.4739 4.41138C20.613 4.38208 20.7302 4.35278 20.8547 4.35278C21.1477 4.35278 21.4773 4.60913 21.4773 5.03394C21.4773 5.37085 21.2576 5.6272 20.95 5.72241C20.5618 5.84692 17.7639 6.14722 17.4197 6.22778C17.0535 6.30835 16.863 6.58667 16.863 7.02612C16.8557 7.65601 16.8557 9.69946 16.9949 10.637C17.1414 11.5525 18.2107 15.991 18.262 16.1887C18.3865 16.6501 18.1082 17.075 17.6394 17.075C17.3025 17.075 17.0535 16.8845 16.9436 16.4304C16.7239 15.5222 15.9402 12.446 15.7205 11.7209C15.5593 11.179 15.4202 10.9885 15.1125 10.9885C14.8123 10.9885 14.6951 11.1936 14.5193 11.7209C14.2849 12.4607 13.5305 15.5295 13.2888 16.4304C13.1643 16.8845 12.9299 17.075 12.5857 17.075C12.1243 17.075 11.8313 16.6501 11.9558 16.1887C12.0144 15.991 13.0764 11.5525 13.2229 10.637C13.3767 9.69946 13.3987 7.65601 13.384 7.07007C13.3767 6.5647 13.1497 6.323 12.7029 6.24976C12.2708 6.17651 11.6262 6.14722 11.0037 6.14722C10.4031 6.13989 9.72925 6.17651 9.30444 6.24976C8.85767 6.323 8.63062 6.5647 8.61597 7.07007C8.60864 7.65601 8.62329 9.69946 8.76245 10.637C8.90161 11.5525 9.97827 15.991 10.0222 16.1887C10.1467 16.6501 9.86841 17.075 9.39966 17.075C9.05542 17.075 8.81372 16.8845 8.70386 16.4304C8.48413 15.5222 7.70776 12.446 7.48071 11.7209C7.31958 11.179 7.18774 10.9885 6.8728 10.9885Z" fill="#F15B43"/>
</svg>
