<svg width="24" height="24" viewBox="0 0 24 24" fill="none" xmlns="http://www.w3.org/2000/svg">
<g id="icon/dashboard2">
<path id="Vector 48 (Stroke)" fill-rule="evenodd" clip-rule="evenodd" d="M0 0.75C0 0.335786 0.335786 0 0.75 0H10.3125C10.7267 0 11.0625 0.335787 11.0625 0.75V13.6875C11.0625 14.1017 10.7267 14.4375 10.3125 14.4375H0.75C0.335786 14.4375 0 14.1017 0 13.6875V0.75ZM1.875 1.875V12.5625H9.1875V1.875H1.875ZM12.9375 0.75C12.9375 0.335786 13.2733 0 13.6875 0H23.25C23.6642 0 24 0.335787 24 0.75V6.9375C24 7.35171 23.6642 7.6875 23.25 7.6875H13.6875C13.2733 7.6875 12.9375 7.35171 12.9375 6.9375V0.75ZM14.8125 1.875V5.8125H22.125V1.875H14.8125ZM12.9375 10.3125C12.9375 9.89829 13.2733 9.5625 13.6875 9.5625H23.25C23.6642 9.5625 24 9.89829 24 10.3125V23.25C24 23.6642 23.6642 24 23.25 24H13.6875C13.2733 24 12.9375 23.6642 12.9375 23.25V10.3125ZM14.8125 11.4375V22.125H22.125V11.4375H14.8125ZM0 17.0625C0 16.6483 0.335786 16.3125 0.75 16.3125H10.3125C10.7267 16.3125 11.0625 16.6483 11.0625 17.0625V23.25C11.0625 23.6642 10.7267 24 10.3125 24H0.75C0.335786 24 0 23.6642 0 23.25V17.0625ZM1.875 18.1875V22.125H9.1875V18.1875H1.875Z" fill="#F15B43"/>
</g>
</svg>
