<svg width="32" height="33" viewBox="0 0 32 33" fill="none" xmlns="http://www.w3.org/2000/svg">
<g id="icon/bread">
<path id="Union" fill-rule="evenodd" clip-rule="evenodd" d="M5 10.3235C5 9.27379 5.8028 8.5 6.7 8.5H19.3C20.1972 8.5 21 9.27379 21 10.3235V10.5H12.7C10.6753 10.5 9 12.1143 9 14.1471C9 15.8327 10.152 17.2306 11.7 17.6589V22.5H7.7V12.1471H6.7C5.8028 12.1471 5 11.3733 5 10.3235ZM11.7 24.5H6.7C6.14772 24.5 5.7 24.0523 5.7 23.5V14.007C4.12052 13.5523 3 12.047 3 10.3235C3 8.25448 4.61486 6.5 6.7 6.5H19.3C21.3851 6.5 23 8.25448 23 10.3235V10.5H25.3C27.3247 10.5 29 12.1143 29 14.1471C29 15.8327 27.848 17.2306 26.3 17.6589V26.5C26.3 27.0523 25.8523 27.5 25.3 27.5H12.7C12.1477 27.5 11.7 27.0523 11.7 26.5V24.5ZM11 14.1471C11 13.256 11.7424 12.5 12.7 12.5H25.3C26.2576 12.5 27 13.256 27 14.1471C27 15.0381 26.2576 15.7941 25.3 15.7941H24.3V25.5H13.7V15.7941H12.7C11.7424 15.7941 11 15.0381 11 14.1471Z" fill="#F15B43"/>
</g>
</svg>
