<svg width="24" height="24" viewBox="0 0 24 24" fill="none" xmlns="http://www.w3.org/2000/svg">
<g id="icon/bread">
<path id="Union" fill-rule="evenodd" clip-rule="evenodd" d="M3.75 7.36765C3.75 6.58034 4.3521 6 5.025 6H14.475C15.1479 6 15.75 6.58034 15.75 7.36765V7.5H9.525C8.00648 7.5 6.75 8.7107 6.75 10.2353C6.75 11.4996 7.61402 12.548 8.775 12.8692V16.5H5.775V8.73529H5.025C4.3521 8.73529 3.75 8.15495 3.75 7.36765ZM8.775 18H5.025C4.61079 18 4.275 17.6642 4.275 17.25V10.1302C3.09039 9.78921 2.25 8.66028 2.25 7.36765C2.25 5.81586 3.46114 4.5 5.025 4.5H14.475C16.0389 4.5 17.25 5.81586 17.25 7.36765V7.5H18.975C20.4935 7.5 21.75 8.7107 21.75 10.2353C21.75 11.4996 20.886 12.548 19.725 12.8692V19.5C19.725 19.9142 19.3892 20.25 18.975 20.25H9.525C9.11079 20.25 8.775 19.9142 8.775 19.5V18ZM8.25 10.2353C8.25 9.56699 8.80677 9 9.525 9H18.975C19.6932 9 20.25 9.56699 20.25 10.2353C20.25 10.9036 19.6932 11.4706 18.975 11.4706H18.225V18.75H10.275V11.4706H9.525C8.80677 11.4706 8.25 10.9036 8.25 10.2353Z" fill="#E4EBF7"/>
</g>
</svg>
