<svg width="24" height="24" viewBox="0 0 24 24" fill="none" xmlns="http://www.w3.org/2000/svg">
<g id="icon/pen">
<path id="Vector" d="M20.4802 4.58018L22.5 2.56058L21.4394 1.5L19.4198 3.51968L18.6 2.7C18.4646 2.55775 18.3017 2.4445 18.1212 2.36711C17.9407 2.28972 17.7464 2.24982 17.55 2.24982C17.3536 2.24982 17.1593 2.28972 16.9788 2.36711C16.7983 2.4445 16.6354 2.55775 16.5 2.7L3 16.2V21H7.8L21.3 7.5C21.4422 7.3646 21.5555 7.20171 21.6329 7.02121C21.7102 6.84072 21.7501 6.64638 21.7501 6.45C21.7501 6.25362 21.7102 6.05928 21.6329 5.87879C21.5555 5.69829 21.4422 5.5354 21.3 5.4L20.4802 4.58018ZM7.2 19.5H4.5V16.8L17.55 3.75L20.25 6.45L7.2 19.5Z" fill="#E4EBF7"/>
<path id="Vector_2" d="M6.74998 8.68933L12.4394 2.99995L13.5 4.06061L7.81064 9.74999L6.74998 8.68933Z" fill="#E4EBF7"/>
</g>
</svg>
