<svg width="32" height="32" viewBox="0 0 32 32" fill="none" xmlns="http://www.w3.org/2000/svg">
<g id="icon/reports">
<path id="Vector" d="M26 30H6C5.46975 29.9994 4.9614 29.7885 4.58646 29.4135C4.21152 29.0386 4.00061 28.5302 4 28V4C4.00061 3.46975 4.21152 2.9614 4.58646 2.58646C4.9614 2.21152 5.46975 2.00061 6 2H26C26.5302 2.00061 27.0386 2.21152 27.4135 2.58646C27.7885 2.9614 27.9994 3.46975 28 4V28C27.9994 28.5302 27.7885 29.0386 27.4135 29.4135C27.0386 29.7885 26.5302 29.9994 26 30ZM6 4V28H26V4H6Z" fill="#F15B43"/>
<path id="Vector_2" d="M9 7H20V9H9V7ZM9 12H16V14H9V12Z" fill="#F15B43"/>
</g>
</svg>
