<svg width="24" height="24" viewBox="0 0 24 24" fill="none" xmlns="http://www.w3.org/2000/svg">
<g id="icon/reports">
<path id="Vector" d="M19.5 22.5H4.5C4.10232 22.4995 3.72105 22.3414 3.43984 22.0602C3.15864 21.7789 3.00046 21.3977 3 21V3C3.00046 2.60232 3.15864 2.22105 3.43984 1.93984C3.72105 1.65864 4.10232 1.50046 4.5 1.5H19.5C19.8977 1.50046 20.2789 1.65864 20.5602 1.93984C20.8414 2.22105 20.9995 2.60232 21 3V21C20.9995 21.3977 20.8414 21.7789 20.5602 22.0602C20.2789 22.3414 19.8977 22.4995 19.5 22.5ZM4.5 3V21H19.5V3H4.5Z" fill="#E4EBF7"/>
<path id="Vector_2" d="M6.75 5.25H15V6.75H6.75V5.25ZM6.75 9H12V10.5H6.75V9Z" fill="#E4EBF7"/>
</g>
</svg>
