<svg width="24" height="24" viewBox="0 0 24 24" fill="none" xmlns="http://www.w3.org/2000/svg">
<g id="icon/women">
<path id="Vector" d="M12 21V16.8" stroke="#E4EBF7" stroke-width="1.44" stroke-miterlimit="10" stroke-linecap="square"/>
<path id="Vector_2" d="M10.0914 13.8498L5.07115 16.875C4.53055 17.2008 4.19995 17.7858 4.19995 18.417V21H19.8V18.417C19.8 17.7858 19.4694 17.2008 18.9288 16.875L13.9086 13.8498" stroke="#E4EBF7" stroke-width="1.44" stroke-miterlimit="10"/>
<path id="Vector_3" d="M7.19995 7.8C7.19995 5.1492 9.34915 3 12 3C14.6508 3 16.8 5.1492 16.8 7.8C16.8 11.4 14.6508 14.4 12 14.4C9.34915 14.4 7.19995 11.4 7.19995 7.8Z" stroke="#E4EBF7" stroke-width="1.44" stroke-miterlimit="10" stroke-linecap="square"/>
<path id="Vector_4" d="M7.2229 7.32719C7.9243 7.62719 8.7349 7.79999 9.6001 7.79999C11.1727 7.79999 12.5647 7.22999 13.4401 6.35339C14.2063 7.22999 15.4237 7.79999 16.8001 7.79999" stroke="#E4EBF7" stroke-width="1.44" stroke-miterlimit="10"/>
<path id="Vector_5" d="M7.20005 7.79999C7.20005 7.79999 7.20005 12 4.80005 13.8C5.40005 15 7.20005 15.5922 7.20005 15.5922" stroke="#E4EBF7" stroke-width="1.44" stroke-miterlimit="10"/>
<path id="Vector_6" d="M16.8 7.79999C16.8 7.79999 16.8 12 19.2 13.8C18.6 15 16.8 15.5922 16.8 15.5922" stroke="#E4EBF7" stroke-width="1.44" stroke-miterlimit="10"/>
</g>
</svg>
