<svg width="24" height="24" viewBox="0 0 24 24" fill="none" xmlns="http://www.w3.org/2000/svg">
<g id="icon/women">
<path id="Vector" d="M12 21V16.8" stroke="#364F75" stroke-width="1.44" stroke-miterlimit="10" stroke-linecap="square"/>
<path id="Vector_2" d="M10.0914 13.8498L5.0712 16.875C4.5306 17.2008 4.2 17.7858 4.2 18.417V21H19.8V18.417C19.8 17.7858 19.4694 17.2008 18.9288 16.875L13.9086 13.8498" stroke="#364F75" stroke-width="1.44" stroke-miterlimit="10"/>
<path id="Vector_3" d="M7.2 7.8C7.2 5.1492 9.3492 3 12 3C14.6508 3 16.8 5.1492 16.8 7.8C16.8 11.4 14.6508 14.4 12 14.4C9.3492 14.4 7.2 11.4 7.2 7.8Z" stroke="#364F75" stroke-width="1.44" stroke-miterlimit="10" stroke-linecap="square"/>
<path id="Vector_4" d="M7.22279 7.32719C7.92419 7.62719 8.73479 7.79999 9.59999 7.79999C11.1726 7.79999 12.5646 7.22999 13.44 6.35339C14.2062 7.22999 15.4236 7.79999 16.8 7.79999" stroke="#364F75" stroke-width="1.44" stroke-miterlimit="10"/>
<path id="Vector_5" d="M7.2 7.79999C7.2 7.79999 7.2 12 4.8 13.8C5.4 15 7.2 15.5922 7.2 15.5922" stroke="#364F75" stroke-width="1.44" stroke-miterlimit="10"/>
<path id="Vector_6" d="M16.8 7.79999C16.8 7.79999 16.8 12 19.2 13.8C18.6 15 16.8 15.5922 16.8 15.5922" stroke="#364F75" stroke-width="1.44" stroke-miterlimit="10"/>
</g>
</svg>
