<svg width="22" height="22" viewBox="0 0 22 22" fill="none" xmlns="http://www.w3.org/2000/svg">
<g id="Bagpack">
<path id="Vector" d="M17.5 3.75V4.25V7.6925V7.89961L17.3536 8.04605L15.7636 9.63605L15.7621 9.6375C15.6453 9.75334 15.5068 9.845 15.3545 9.90721C15.2027 9.9692 15.0402 10.0007 14.8763 10M17.5 3.75L14.8775 9.5M17.5 3.75H17M17.5 3.75H17M14.8763 10C14.8757 10 14.8752 9.99999 14.8746 9.99999L14.8775 9.5M14.8763 10H14.8775V9.5M14.8763 10H7.12371M14.8775 9.5H7.1225M7.12371 10C7.12427 10 7.12483 9.99999 7.12539 9.99999L7.1225 9.5M7.12371 10C6.95977 10.0007 6.79729 9.9692 6.64551 9.90721L6.83457 9.44433M7.12371 10H7.1225V9.5M7.1225 9.5L6.83457 9.44433M6.83457 9.44433L6.6455 9.9072C6.49321 9.845 6.35469 9.75334 6.23789 9.63749L6.23644 9.63606L4.64645 8.04605L4.5 7.89961V7.6925V4.25V3.75H5H17M6.83457 9.44433L17 3.75M18 10.75H18.5H19.25C19.7141 10.75 20.1592 10.9344 20.4874 11.2626C20.8156 11.5908 21 12.0359 21 12.5V16.25C21 16.7141 20.8156 17.1592 20.4874 17.4874C20.1592 17.8156 19.7141 18 19.25 18H18.5H18V18.5C18 19.163 17.7366 19.7989 17.2678 20.2678C16.7989 20.7366 16.163 21 15.5 21H6.5C5.83696 21 5.20107 20.7366 4.73223 20.2678C4.26339 19.7989 4 19.163 4 18.5V18H3.5H2.75C2.28587 18 1.84075 17.8156 1.51256 17.4874C1.18437 17.1592 1 16.7141 1 16.25V12.5C1 12.0359 1.18437 11.5908 1.51256 11.2626C1.84075 10.9344 2.28587 10.75 2.75 10.75H3.5H4V10.25V3.5C4 3.4337 4.02634 3.37011 4.07322 3.32322C4.12011 3.27634 4.1837 3.25 4.25 3.25H8H8.5V2.75C8.5 2.28587 8.68437 1.84075 9.01256 1.51256L8.65901 1.15901L9.01256 1.51256C9.34075 1.18437 9.78587 1 10.25 1H11.75C12.2141 1 12.6592 1.18437 12.9874 1.51256C13.3156 1.84075 13.5 2.28587 13.5 2.75V3.25H14H17.75C17.8163 3.25 17.8799 3.27634 17.9268 3.32322C17.9737 3.37011 18 3.4337 18 3.5V10.25V10.75ZM20 13.75H20.5V13.25V12.5C20.5 12.1685 20.3683 11.8505 20.1339 11.6161C19.8995 11.3817 19.5815 11.25 19.25 11.25H18.5H18V11.75V13.25V13.75H18.5H20ZM12.5 3.25H13V2.75C13 2.41848 12.8683 2.10054 12.6339 1.86612C12.3995 1.6317 12.0815 1.5 11.75 1.5H10.25C9.91848 1.5 9.60054 1.6317 9.36612 1.86612C9.1317 2.10054 9 2.41848 9 2.75V3.25H9.5H12.5ZM4 11.75V11.25H3.5H2.75C2.41848 11.25 2.10054 11.3817 1.86612 11.6161C1.6317 11.8505 1.5 12.1685 1.5 12.5V13.25V13.75H2H3.5H4V13.25V11.75ZM2 14.25H1.5V14.75V16.25C1.5 16.5815 1.6317 16.8995 1.86612 17.1339C2.10054 17.3683 2.41848 17.5 2.75 17.5H3.5H4V17V14.75V14.25H3.5H2ZM5.35355 9.45395L4.5 8.60039V9.8075V18.5C4.5 19.0304 4.71071 19.5391 5.08579 19.9142C5.46086 20.2893 5.96957 20.5 6.5 20.5H15.5C16.0304 20.5 16.5391 20.2893 16.9142 19.9142C17.2893 19.5391 17.5 19.0304 17.5 18.5V9.8075V8.60039L16.6464 9.45395L16.1139 9.98645L16.1137 9.98667C15.7859 10.3149 15.341 10.4996 14.8771 10.5H7.12294C6.65897 10.4996 6.21415 10.3149 5.88627 9.98667L5.88605 9.98645L5.35355 9.45395ZM18 17V17.5H18.5H19.25C19.5815 17.5 19.8995 17.3683 20.1339 17.1339C20.3683 16.8995 20.5 16.5815 20.5 16.25V14.75V14.25H20H18.5H18V14.75V17Z" fill="#364F75" stroke="#364F75"/>
<path id="Vector_2" d="M7.29606 16.6464L7.295 16.6454C7.10743 16.4589 7.00137 16.2058 7 15.9413V14C7 13.7348 7.10536 13.4804 7.29289 13.2929C7.48043 13.1054 7.73478 13 8 13H14C14.2652 13 14.5196 13.1054 14.7071 13.2929L15.0607 12.9393L14.7071 13.2929C14.8946 13.4804 15 13.7348 15 14V15.9414C14.9986 16.2058 14.8926 16.459 14.705 16.6454L14.7039 16.6464L13.6464 17.7039L13.6454 17.705C13.4589 17.8926 13.2058 17.9986 12.9413 18H9.05869C8.79423 17.9986 8.54107 17.8926 8.35461 17.705L8.35355 17.7039L7.29606 16.6464ZM14.3536 16.2961L14.5 16.1496V15.9425V14V13.5H14H8H7.5V14V15.9425V16.1496L7.64645 16.2961L8.70395 17.3536L8.85039 17.5H9.0575H12.9425H13.1496L13.2961 17.3536L14.3536 16.2961Z" fill="#364F75" stroke="#364F75"/>
</g>
</svg>
