<svg width="22" height="22" viewBox="0 0 22 22" fill="none" xmlns="http://www.w3.org/2000/svg">
<g id="Bagpack">
<path id="Vector" d="M19.25 10.25H18.5V3.5C18.5 3.30109 18.421 3.11032 18.2803 2.96967C18.1397 2.82902 17.9489 2.75 17.75 2.75H14C14 2.15326 13.7629 1.58097 13.341 1.15901C12.919 0.737053 12.3467 0.5 11.75 0.5H10.25C9.65326 0.5 9.08097 0.737053 8.65901 1.15901C8.23705 1.58097 8 2.15326 8 2.75H4.25C4.05109 2.75 3.86032 2.82902 3.71967 2.96967C3.57902 3.11032 3.5 3.30109 3.5 3.5V10.25H2.75C2.15326 10.25 1.58097 10.4871 1.15901 10.909C0.737053 11.331 0.5 11.9033 0.5 12.5V16.25C0.5 16.8467 0.737053 17.419 1.15901 17.841C1.58097 18.2629 2.15326 18.5 2.75 18.5H3.5C3.5 19.2956 3.81607 20.0587 4.37868 20.6213C4.94129 21.1839 5.70435 21.5 6.5 21.5H15.5C16.2956 21.5 17.0587 21.1839 17.6213 20.6213C18.1839 20.0587 18.5 19.2956 18.5 18.5H19.25C19.8467 18.5 20.419 18.2629 20.841 17.841C21.2629 17.419 21.5 16.8467 21.5 16.25V12.5C21.5 11.9033 21.2629 11.331 20.841 10.909C20.419 10.4871 19.8467 10.25 19.25 10.25ZM19.25 11.75C19.4489 11.75 19.6397 11.829 19.7803 11.9697C19.921 12.1103 20 12.3011 20 12.5V13.25H18.5V11.75H19.25ZM10.25 2H11.75C11.9489 2 12.1397 2.07902 12.2803 2.21967C12.421 2.36032 12.5 2.55109 12.5 2.75H9.5C9.5 2.55109 9.57902 2.36032 9.71967 2.21967C9.86032 2.07902 10.0511 2 10.25 2ZM17 4.25V7.6925L15.41 9.2825C15.3399 9.35201 15.2568 9.407 15.1654 9.44433C15.0741 9.48165 14.9762 9.50057 14.8775 9.5H7.1225C7.0238 9.50057 6.92595 9.48165 6.83457 9.44433C6.74319 9.407 6.66008 9.35201 6.59 9.2825L5 7.6925V4.25H17ZM2.75 11.75H3.5V13.25H2V12.5C2 12.3011 2.07902 12.1103 2.21967 11.9697C2.36032 11.829 2.55109 11.75 2.75 11.75ZM2.75 17C2.55109 17 2.36032 16.921 2.21967 16.7803C2.07902 16.6397 2 16.4489 2 16.25V14.75H3.5V17H2.75ZM17 18.5C17 18.8978 16.842 19.2794 16.5607 19.5607C16.2794 19.842 15.8978 20 15.5 20H6.5C6.10218 20 5.72064 19.842 5.43934 19.5607C5.15804 19.2794 5 18.8978 5 18.5V9.8075L5.5325 10.34C5.95405 10.7621 6.52596 10.9995 7.1225 11H14.8775C15.474 10.9995 16.0459 10.7621 16.4675 10.34L17 9.8075V18.5ZM19.25 17H18.5V14.75H20V16.25C20 16.4489 19.921 16.6397 19.7803 16.7803C19.6397 16.921 19.4489 17 19.25 17Z" fill="#E4EBF7"/>
<path id="Vector_2" d="M14 12.5H8C7.60218 12.5 7.22064 12.658 6.93934 12.9393C6.65804 13.2206 6.5 13.6022 6.5 14V15.9425C6.50167 16.3397 6.66081 16.72 6.9425 17L8 18.0575C8.28001 18.3392 8.66032 18.4983 9.0575 18.5H12.9425C13.3397 18.4983 13.72 18.3392 14 18.0575L15.0575 17C15.3392 16.72 15.4983 16.3397 15.5 15.9425V14C15.5 13.6022 15.342 13.2206 15.0607 12.9393C14.7794 12.658 14.3978 12.5 14 12.5ZM14 15.9425L12.9425 17H9.0575L8 15.9425V14H14V15.9425Z" fill="#E4EBF7"/>
</g>
</svg>
