<svg width="25" height="24" viewBox="0 0 25 24" fill="none" xmlns="http://www.w3.org/2000/svg">
<g id="icon/pen">
<path id="Vector" d="M21.0803 4.58018L23.1001 2.56058L22.0395 1.5L20.0199 3.51968L19.2001 2.7C19.0647 2.55775 18.9018 2.4445 18.7213 2.36711C18.5408 2.28972 18.3465 2.24982 18.1501 2.24982C17.9537 2.24982 17.7594 2.28972 17.5789 2.36711C17.3984 2.4445 17.2355 2.55775 17.1001 2.7L3.60008 16.2V21H8.40008L21.9001 7.5C22.0423 7.3646 22.1556 7.20171 22.2329 7.02121C22.3103 6.84072 22.3502 6.64638 22.3502 6.45C22.3502 6.25362 22.3103 6.05928 22.2329 5.87879C22.1556 5.69829 22.0423 5.5354 21.9001 5.4L21.0803 4.58018ZM7.80008 19.5H5.10008V16.8L18.1501 3.75L20.8501 6.45L7.80008 19.5Z" fill="black"/>
<path id="Vector_2" d="M7.35006 8.68945L13.0394 3.00007L14.1001 4.06073L8.41072 9.75011L7.35006 8.68945Z" fill="black"/>
</g>
</svg>
