<svg width="24" height="24" viewBox="0 0 24 24" fill="none" xmlns="http://www.w3.org/2000/svg">
<g id="icon/baby">
<path id="Vector" d="M8.57146 21.4286C9.51824 21.4286 10.2857 20.6611 10.2857 19.7143C10.2857 18.7675 9.51824 18 8.57146 18C7.62469 18 6.85718 18.7675 6.85718 19.7143C6.85718 20.6611 7.62469 21.4286 8.57146 21.4286Z" fill="#E4EBF7" stroke="#E4EBF7" stroke-width="1.44" stroke-miterlimit="10"/>
<path id="Vector_2" d="M17.1428 21.4286C18.0895 21.4286 18.857 20.6611 18.857 19.7143C18.857 18.7675 18.0895 18 17.1428 18C16.196 18 15.4285 18.7675 15.4285 19.7143C15.4285 20.6611 16.196 21.4286 17.1428 21.4286Z" fill="#E4EBF7" stroke="#E4EBF7" stroke-width="1.44" stroke-miterlimit="10"/>
<path id="Vector_3" d="M14.5715 2.57144C16.3902 2.57144 18.1343 3.29389 19.4203 4.57985C20.7062 5.86582 21.4287 7.60996 21.4287 9.42858H14.5715V2.57144Z" stroke="#E4EBF7" stroke-width="1.44" stroke-miterlimit="10"/>
<path id="Vector_4" d="M4.28564 9.42856H21.4285V12C21.4285 12.9093 21.0673 13.7814 20.4243 14.4244C19.7813 15.0673 18.9092 15.4286 17.9999 15.4286H7.71422C6.8049 15.4286 5.93283 15.0673 5.28985 14.4244C4.64687 13.7814 4.28564 12.9093 4.28564 12V9.42856Z" stroke="#E4EBF7" stroke-width="1.44" stroke-miterlimit="10"/>
<path id="Vector_5" d="M2.57153 4.28571C3.02619 4.28571 3.46223 4.46632 3.78372 4.78781C4.10521 5.1093 4.28582 5.54533 4.28582 5.99999V9.42856" stroke="#E4EBF7" stroke-width="1.44" stroke-miterlimit="10" stroke-linecap="square"/>
</g>
</svg>
