<svg width="24" height="24" viewBox="0 0 24 24" fill="none" xmlns="http://www.w3.org/2000/svg">
<g id="icon/baby">
<path id="Vector" d="M8.57122 21.4286C9.51799 21.4286 10.2855 20.6611 10.2855 19.7143C10.2855 18.7675 9.51799 18 8.57122 18C7.62445 18 6.85693 18.7675 6.85693 19.7143C6.85693 20.6611 7.62445 21.4286 8.57122 21.4286Z" fill="#364F75" stroke="#364F75" stroke-width="1.44" stroke-miterlimit="10"/>
<path id="Vector_2" d="M17.143 21.4286C18.0898 21.4286 18.8573 20.6611 18.8573 19.7143C18.8573 18.7675 18.0898 18 17.143 18C16.1962 18 15.4287 18.7675 15.4287 19.7143C15.4287 20.6611 16.1962 21.4286 17.143 21.4286Z" fill="#364F75" stroke="#364F75" stroke-width="1.44" stroke-miterlimit="10"/>
<path id="Vector_3" d="M14.5713 2.57144C16.3899 2.57144 18.1341 3.29389 19.42 4.57985C20.706 5.86582 21.4284 7.60996 21.4284 9.42858H14.5713V2.57144Z" stroke="#364F75" stroke-width="1.44" stroke-miterlimit="10"/>
<path id="Vector_4" d="M4.28564 9.42856H21.4285V12C21.4285 12.9093 21.0673 13.7814 20.4243 14.4244C19.7813 15.0673 18.9092 15.4286 17.9999 15.4286H7.71422C6.8049 15.4286 5.93283 15.0673 5.28985 14.4244C4.64687 13.7814 4.28564 12.9093 4.28564 12V9.42856Z" stroke="#364F75" stroke-width="1.44" stroke-miterlimit="10"/>
<path id="Vector_5" d="M2.57129 4.28571C3.02595 4.28571 3.46198 4.46632 3.78347 4.78781C4.10496 5.1093 4.28557 5.54533 4.28557 5.99999V9.42856" stroke="#364F75" stroke-width="1.44" stroke-miterlimit="10" stroke-linecap="square"/>
</g>
</svg>
