<svg width="32" height="32" viewBox="0 0 32 32" fill="none" xmlns="http://www.w3.org/2000/svg">
<g id="icon/baby">
<path id="Vector" d="M11.4286 28.5714C12.691 28.5714 13.7143 27.5481 13.7143 26.2857C13.7143 25.0233 12.691 24 11.4286 24C10.1662 24 9.14288 25.0233 9.14288 26.2857C9.14288 27.5481 10.1662 28.5714 11.4286 28.5714Z" stroke="#F15B43" stroke-width="1.44" stroke-miterlimit="10"/>
<path id="Vector_2" d="M22.8571 28.5714C24.1195 28.5714 25.1428 27.5481 25.1428 26.2857C25.1428 25.0233 24.1195 24 22.8571 24C21.5948 24 20.5714 25.0233 20.5714 26.2857C20.5714 27.5481 21.5948 28.5714 22.8571 28.5714Z" stroke="#F15B43" stroke-width="1.44" stroke-miterlimit="10"/>
<path id="Vector_3" d="M19.4286 3.42859C21.8534 3.42859 24.1789 4.39185 25.8936 6.10647C27.6082 7.82109 28.5714 10.1466 28.5714 12.5714H19.4286V3.42859Z" stroke="#F15B43" stroke-width="1.44" stroke-miterlimit="10"/>
<path id="Vector_4" d="M5.71429 12.5714H28.5714V16C28.5714 17.2124 28.0898 18.3752 27.2325 19.2325C26.3752 20.0898 25.2124 20.5714 24 20.5714H10.2857C9.0733 20.5714 7.91054 20.0898 7.05323 19.2325C6.19593 18.3752 5.71429 17.2124 5.71429 16V12.5714Z" stroke="#F15B43" stroke-width="1.44" stroke-miterlimit="10"/>
<path id="Vector_5" d="M3.42859 5.71423C4.0348 5.71423 4.61618 5.95505 5.04483 6.3837C5.47349 6.81236 5.7143 7.39374 5.7143 7.99995V12.5714" stroke="#F15B43" stroke-width="1.44" stroke-miterlimit="10" stroke-linecap="square"/>
</g>
</svg>
